<svg viewBox="0 0 640 512" xmlns="http://www.w3.org/2000/svg"><path fill="#2271B1" d="m128 0c-17.7 0-32 14.3-32 32v192h96v-32c0-35.3 28.7-64 64-64h224v-96c0-17.7-14.3-32-32-32zm128 160c-17.7 0-32 14.3-32 32v32h96c35.3 0 64 28.7 64 64v128h192c17.7 0 32-14.3 32-32v-192c0-17.7-14.3-32-32-32zm240 64h32c8.8 0 16 7.2 16 16v32c0 8.8-7.2 16-16 16h-32c-8.8 0-16-7.2-16-16v-32c0-8.8 7.2-16 16-16zm-432 32c-17.7 0-32 14.3-32 32v13l155.1 114.9c1.4 1 3.1 1.6 4.9 1.6s3.5-.6 4.9-1.6l155.1-114.9v-13c0-17.7-14.3-32-32-32zm288 84.8-136 100.8c-6.9 5.1-15.3 7.9-24 7.9s-17-2.8-24-7.9l-136-100.8v139.2c0 17.7 14.3 32 32 32h256c17.7 0 32-14.3 32-32z"/></svg>