<svg viewBox="0 0 640 512" xmlns="http://www.w3.org/2000/svg"><path fill="#2271B1" d="m48 64c-26.5 0-48 21.5-48 48 0 15.1 7.1 29.3 19.2 38.4l217.6 163.2c11.4 8.5 27 8.5 38.4 0l57.4-43c23.9-59.8 79.7-103.3 146.3-109.8l13.9-10.4c12.1-9.1 19.2-23.3 19.2-38.4 0-26.5-21.5-48-48-48zm246.4 275.2c-22.8 17.1-54 17.1-76.8 0l-217.6-163.2v208c0 35.3 28.7 64 64 64h296.2c-25.1-30.4-40.2-69.5-40.2-112 0-5.6.3-11.1.8-16.6zm345.6-3.2a144 144 0 1 0 -288 0 144 144 0 1 0 288 0zm-76.7-43.3c6.2 6.2 6.2 16.4 0 22.6l-72 72c-6.2 6.2-16.4 6.2-22.6 0l-40-40c-6.2-6.2-6.2-16.4 0-22.6s16.4-6.2 22.6 0l28.7 28.7 60.7-60.7c6.2-6.2 16.4-6.2 22.6 0z"/></svg>