<svg viewBox="0 0 576 512" xmlns="http://www.w3.org/2000/svg"><path fill="#000" d="m64 64c-35.3 0-64 28.7-64 64v7.4c0 6.8 4.4 12.6 10.1 16.3 13.2 8.6 21.9 23.4 21.9 40.3s-8.7 31.7-21.9 40.3c-5.7 3.7-10.1 9.5-10.1 16.3v71.4h576v-71.4c0-6.8-4.4-12.6-10.1-16.3-13.2-8.6-21.9-23.4-21.9-40.3s8.7-31.7 21.9-40.3c5.7-3.7 10.1-9.5 10.1-16.3v-7.4c0-35.3-28.7-64-64-64zm512 288h-576v64c0 17.7 14.3 32 32 32h48v-32c0-8.8 7.2-16 16-16s16 7.2 16 16v32h96v-32c0-8.8 7.2-16 16-16s16 7.2 16 16v32h96v-32c0-8.8 7.2-16 16-16s16 7.2 16 16v32h96v-32c0-8.8 7.2-16 16-16s16 7.2 16 16v32h48c17.7 0 32-14.3 32-32zm-384-192v64c0 17.7-14.3 32-32 32s-32-14.3-32-32v-64c0-17.7 14.3-32 32-32s32 14.3 32 32zm128 0v64c0 17.7-14.3 32-32 32s-32-14.3-32-32v-64c0-17.7 14.3-32 32-32s32 14.3 32 32zm128 0v64c0 17.7-14.3 32-32 32s-32-14.3-32-32v-64c0-17.7 14.3-32 32-32s32 14.3 32 32z"/></svg>