<svg viewBox="0 0 512 512" xmlns="http://www.w3.org/2000/svg"><path fill="#2271B1" d="m176 88v40h160v-40c0-4.4-3.6-8-8-8h-144c-4.4 0-8 3.6-8 8zm-48 40v-40c0-30.9 25.1-56 56-56h144c30.9 0 56 25.1 56 56v40h28.1c12.7 0 24.9 5.1 33.9 14.1l51.9 51.9c9 9 14.1 21.2 14.1 33.9v92.1h-128v-32c0-17.7-14.3-32-32-32s-32 14.3-32 32v32h-128v-32c0-17.7-14.3-32-32-32s-32 14.3-32 32v32h-128v-92.1c0-12.7 5.1-24.9 14.1-33.9l51.9-51.9c9-9 21.2-14.1 33.9-14.1zm-128 288v-64h128c0 17.7 14.3 32 32 32s32-14.3 32-32h128c0 17.7 14.3 32 32 32s32-14.3 32-32h128v64c0 35.3-28.7 64-64 64h-384c-35.3 0-64-28.7-64-64z"/></svg>