<svg viewBox="0 0 1000 1000" xmlns="http://www.w3.org/2000/svg"><path d="M90.59 12.26c-4.26 1.55-9.69 4.84-12.4 7.36-10.66 9.88-10.27 4.46-10.27 145.9 0 148.23-.77 140.28 15.31 150.36l8.72 5.62h229.8v256.74c0 273.59-.19 265.64 8.72 269.13 1.74.58 44.18 1.16 94.17 1.16h90.86v54.64c0 30.23.97 57.93 1.94 61.62 2.33 8.72 14.53 20.73 23.45 23.25 9.3 2.71 356.71 2.52 366.4 0 4.07-1.16 9.88-4.26 13.17-7.17 12.01-10.08 11.63-5.23 11.63-127.1V742.55l-4.46-6.59c-2.33-3.49-7.36-8.53-10.85-10.85l-6.59-4.46H744.52l-43.01-21.31-43.01-21.51-60.45.58-60.65.58-6.97 5.42c-13.76 10.46-13.95 11.04-14.53 75.57l-.58 57.55H352.75v-313.5l6.39-.97c7.95-1.55 146.1-1.55 151.91 0 4.26.97 4.26 1.16 4.84 58.52l.58 57.74 5.23 7.75c3.1 4.65 8.53 9.5 13.56 12.01 8.53 4.07 9.11 4.07 189.11 4.07 122.65 0 182.13-.58 185.82-2.13 6.59-2.52 15.5-10.66 19.18-17.63 2.33-4.26 2.71-24.22 2.71-114.9 0-122.26.39-118-13.17-128.46l-6.78-5.23-85.45-.97-85.45-.97-41.66-20.73-41.66-20.93h-56.97c-54.25 0-57.54.19-65.68 4.07-5.04 2.52-10.46 7.36-13.56 12.01l-5.23 7.75-.58 57.94-.58 57.74H352.74v-149l54.83-.58 55.03-.58 6.97-5.43c14.73-11.04 13.95-4.84 13.95-128.46V76.2l-5.43-8.14c-2.91-4.46-8.72-9.88-12.98-12.01-7.17-3.68-11.24-3.88-90.1-3.88h-82.54l-41.08-20.93-41.08-20.73-56.19-.39c-43.96-.37-57.72.01-63.53 2.14zm153.65 49.61l39.72 20.35 84.29.97 84.29.97v205.37l-176.71.58-176.9.39V40.35l52.9.58 52.7.58zm449.52 321.64l42.82 21.31h164.5v207.32l-176.71-.39-176.9-.58-.39-122.07c-.19-67.23 0-123.23.39-124.59.58-1.74 12.79-2.32 52.12-2.32h51.15zm0 346.83l43.01 21.31h164.3v207.32l-176.71-.39-176.9-.58-.39-124.59-.39-124.39h104.24z"/></svg>