<?xml version="1.0" encoding="UTF-8" standalone="no"?>
<svg
   version="1.1"
   id="Layer_1"
   x="0px"
   y="0px"
   width="20"
   height="20"
   viewBox="0 0 20 20"
   enable-background="new 0 0 122.88 122.879"
   xml:space="preserve"
   sodipodi:docname="support-icon.svg"
   inkscape:version="1.3 (0e150ed, 2023-07-21)"
   xmlns:inkscape="http://www.inkscape.org/namespaces/inkscape"
   xmlns:sodipodi="http://sodipodi.sourceforge.net/DTD/sodipodi-0.dtd"
   xmlns="http://www.w3.org/2000/svg"
   xmlns:svg="http://www.w3.org/2000/svg"><defs
     id="defs1" /><sodipodi:namedview
     id="namedview1"
     pagecolor="#ffffff"
     bordercolor="#000000"
     borderopacity="0.25"
     inkscape:showpageshadow="2"
     inkscape:pageopacity="0.0"
     inkscape:pagecheckerboard="0"
     inkscape:deskcolor="#d1d1d1"
     inkscape:zoom="2.6774089"
     inkscape:cx="61.439999"
     inkscape:cy="61.253251"
     inkscape:window-width="1392"
     inkscape:window-height="1099"
     inkscape:window-x="0"
     inkscape:window-y="25"
     inkscape:window-maximized="0"
     inkscape:current-layer="Layer_1" /><g
     id="g1"><path
       fill-rule="evenodd"
       clip-rule="evenodd"
       d="M 9.9997559,0 C 15.522099,0 20,4.4780638 20,9.9997559 20,15.522262 15.521936,20 9.9997559,20 4.4780638,20 0,15.522099 0,9.9997559 0,4.477901 4.4780638,0 9.9997559,0 Z m 0,4.7160215 c 0.6367241,0 1.2477311,0.1127938 1.8128401,0.3193385 L 14.140089,2.7080299 C 12.918725,2.0127117 11.505465,1.615573 9.9997559,1.615573 c -1.5214968,0 -2.9487545,0.4056023 -4.179396,1.1150807 L 8.1424816,5.0522872 C 8.7206113,4.835163 9.346593,4.7160215 9.9997559,4.7160215 Z M 15.033,8.3879263 c 0.162762,0.508305 0.250979,1.0501388 0.250979,1.6118296 0,0.6536511 -0.119142,1.2797951 -0.336592,1.8577621 l 2.322122,2.322285 c 0.70899,-1.230642 1.115243,-2.657899 1.115243,-4.1800471 0,-1.434582 -0.361005,-2.7855045 -0.99659,-3.9668292 z m -3.467802,6.6602107 c -0.49447,0.153159 -1.020679,0.235842 -1.5652794,0.235842 -0.5616907,0 -1.1035246,-0.08838 -1.6118295,-0.251142 l -2.3549996,2.354674 c 1.1811619,0.635748 2.5322471,0.996916 3.9668291,0.996916 1.4189564,0 2.7550684,-0.353193 3.9266274,-0.975268 z M 5.0356855,11.812271 c -0.2068702,-0.565272 -0.319664,-1.175954 -0.319664,-1.8126779 0,-0.5442753 0.082683,-1.0703212 0.2358417,-1.5649541 L 2.5908414,6.0736171 C 1.968766,7.2451761 1.615573,8.58145 1.615573,9.9997559 c 0,1.5055461 0.3974642,2.9186431 1.0924569,4.1400081 z M 13.657989,9.9997559 c 0,0.1801771 -0.01318,0.3572621 -0.03825,0.5306031 -0.0036,0.02572 -0.008,0.05241 -0.01221,0.07813 l -3.26e-4,0.0023 c -0.151694,0.902514 -0.63412,1.692723 -1.317719,2.242043 l -0.005,0.0037 c -0.01774,0.01465 -0.03597,0.02865 -0.05355,0.04264 l -0.01058,0.008 c -0.142416,0.108399 -0.293134,0.207196 -0.449548,0.29411 l -3.25e-4,3.26e-4 c -0.02132,0.01172 -0.04281,0.0236 -0.06445,0.03467 l -0.0078,0.0044 c -0.02181,0.01107 -0.04378,0.02262 -0.06527,0.03337 l -0.0013,6.51e-4 c -0.162273,0.08106 -0.332197,0.150392 -0.505212,0.206382 l -0.0063,0.002 c -0.02376,0.008 -0.04769,0.0153 -0.07145,0.0223 l -0.0036,9.77e-4 c -0.02425,0.0076 -0.04915,0.01465 -0.07389,0.02165 l -0.002,3.26e-4 c -0.151694,0.04134 -0.307294,0.0734 -0.46322,0.09473 l -0.01253,0.002 c -0.02295,0.0033 -0.04622,0.0057 -0.06934,0.009 l -0.01335,0.0013 c -0.02295,0.0026 -0.04557,0.0047 -0.06901,0.007 l -0.01595,0.0016 -0.06901,0.0054 -0.01172,9.76e-4 c -0.02425,0.0013 -0.04867,0.0029 -0.07341,0.0037 -0.05697,0.0029 -0.114096,0.0041 -0.1717134,0.0041 -0.077149,0 -0.1538098,-0.0026 -0.2299823,-0.0076 C 8.892976,13.59618 8.0996753,13.232568 7.4977824,12.667622 l -3.256e-4,-3.26e-4 C 7.3486926,12.528097 7.2109962,12.374612 7.0876228,12.212502 l -0.00488,-0.0063 c -0.014648,-0.01904 -0.02946,-0.03906 -0.043946,-0.05876 l -0.00228,-0.0033 c -0.013998,-0.01969 -0.029134,-0.04037 -0.042969,-0.06039 l -0.00228,-0.0034 C 6.9045158,11.95485 6.824437,11.823176 6.7539612,11.688083 l -0.00358,-0.007 c -0.010255,-0.02002 -0.020346,-0.04036 -0.030274,-0.06006 l -0.0057,-0.01139 c -0.00944,-0.01937 -0.019369,-0.04004 -0.028483,-0.05941 l -0.007,-0.01432 c -0.00911,-0.02002 -0.017904,-0.04037 -0.026856,-0.06038 l -0.00472,-0.01107 c -0.00928,-0.02067 -0.018067,-0.04167 -0.027018,-0.06266 l -0.00521,-0.01302 c -0.00846,-0.02067 -0.016927,-0.04167 -0.025554,-0.06266 l -9.766e-4,-0.0033 c -0.036133,-0.0944 -0.069336,-0.191082 -0.098145,-0.288088 l -0.00342,-0.01172 c -0.00619,-0.02165 -0.012044,-0.0433 -0.017904,-0.06478 l -0.00407,-0.01432 c -0.00586,-0.021 -0.011393,-0.0433 -0.016439,-0.06445 l -0.00391,-0.01628 c -0.00521,-0.02034 -0.010254,-0.04167 -0.014649,-0.06201 l -0.00439,-0.02035 c -0.00407,-0.02067 -0.00928,-0.04329 -0.013346,-0.06429 l -0.0013,-0.008 c -0.014805,-0.07536 -0.027338,-0.151368 -0.037266,-0.228517 -0.020833,-0.158693 -0.031739,-0.319176 -0.031739,-0.479334 v -6.51e-4 c 0,-0.057617 0.00195,-0.1144211 0.00407,-0.1707367 0.05306,-1.1559339 0.6432344,-2.1722182 1.5265424,-2.8047103 1.2483825,-0.8055079 3.002628,-0.8061589 4.251825,-0.00195 0.869798,0.6215871 1.456066,1.6147593 1.526216,2.747581 l 0.0015,-0.00114 c 0.0036,0.075521 0.0059,0.152345 0.0059,0.2306334 v 0 z"
       id="path1"
       style="fill:#ffffff;fill-opacity:1;stroke-width:0.162762" /></g></svg>
