<svg enable-background="new 0 0 115.28 122.88" viewBox="0 0 115.28 122.88" xmlns="http://www.w3.org/2000/svg"><path clip-rule="evenodd" d="m25.38 57h64.88v-19.66h-20.67c-2.17 0-5.19-1.17-6.62-2.6s-2.3-4.01-2.3-6.17v-20.93h-52.52c-.18 0-.32.09-.41.18-.15.1-.19.23-.19.42v106.45c0 .14.09.32.18.41.09.14.28.18.41.18h81.51c.18 0 .17-.09.27-.18.14-.09.33-.28.33-.41v-11.16h-64.87c-4.14 0-7.56-3.4-7.56-7.56v-31.42c0-4.15 3.4-7.55 7.56-7.55zm4.28 26.77 6.87-.43c.15 1.11.45 1.96.91 2.54.75.94 1.81 1.42 3.19 1.42 1.03 0 1.83-.24 2.38-.73.56-.49.84-1.05.84-1.68 0-.61-.26-1.15-.79-1.63s-1.76-.93-3.7-1.36c-3.17-.71-5.43-1.66-6.78-2.84-1.36-1.18-2.04-2.68-2.04-4.51 0-1.2.35-2.33 1.05-3.4s1.74-1.91 3.15-2.52c1.4-.61 3.32-.92 5.76-.92 2.99 0 5.27.56 6.84 1.67s2.5 2.88 2.8 5.32l-6.8.4c-.18-1.06-.56-1.84-1.14-2.32-.58-.49-1.38-.73-2.4-.73-.84 0-1.48.18-1.9.53-.43.35-.64.79-.64 1.3 0 .37.17.7.52 1 .33.31 1.14.59 2.42.86 3.16.68 5.42 1.37 6.79 2.07s2.37 1.56 2.99 2.6c.62 1.03.93 2.19.93 3.47 0 1.5-.41 2.88-1.24 4.15-.83 1.26-1.99 2.23-3.48 2.88s-3.36.98-5.63.98c-3.98 0-6.74-.77-8.27-2.3s-2.43-3.46-2.63-5.82zm22.64-15.68h7.56l5.28 16.86 5.2-16.86h7.34l-8.7 23.42h-7.84zm38.45 14.95v-4.87h11.19v9.96c-2.14 1.46-4.03 2.46-5.68 2.99s-3.6.79-5.86.79c-2.78 0-5.05-.47-6.8-1.42-1.75-.94-3.11-2.36-4.07-4.23s-1.44-4.02-1.44-6.45c0-2.56.53-4.78 1.58-6.67s2.6-3.32 4.63-4.3c1.59-.76 3.72-1.13 6.41-1.13 2.58 0 4.52.23 5.8.7 1.29.47 2.35 1.19 3.19 2.18.85.99 1.48 2.24 1.91 3.75l-6.97 1.25c-.29-.89-.77-1.57-1.46-2.04s-1.56-.71-2.63-.71c-1.58 0-2.85.55-3.79 1.65s-1.41 2.85-1.41 5.23c0 2.53.47 4.34 1.43 5.42.95 1.09 2.28 1.63 3.98 1.63.81 0 1.58-.11 2.31-.35.73-.23 1.57-.63 2.52-1.19v-2.19zm7.04-26.04h9.93c4.16 0 7.56 3.41 7.56 7.56v31.42c0 4.15-3.41 7.56-7.56 7.56h-9.93v13.55c0 1.61-.65 3.04-1.7 4.1-1.06 1.06-2.49 1.7-4.1 1.7-29.44 0-56.59 0-86.18 0-1.61 0-3.04-.64-4.1-1.7s-1.7-2.49-1.7-4.1v-111.24c0-1.61.65-3.04 1.7-4.1 1.06-1.06 2.53-1.7 4.1-1.7h58.72c.13-.05.27-.05.41-.05.64 0 1.29.28 1.75.69h.09c.09.05.14.09.23.18l29.99 30.36c.51.51.88 1.2.88 1.98 0 .23-.05.41-.09.65zm-30.27-29.03v-19.03l21.43 21.7h-18.76c-.74 0-1.38-.32-1.89-.78-.46-.46-.78-1.15-.78-1.89z" fill-rule="evenodd"/></svg>