<svg data-name="Layer 1" xmlns="http://www.w3.org/2000/svg" viewBox="0 0 120.09 122.88"><path d="M16.83 25.39c7.72 2.61 18.45 4.16 30.37 4.16S69.86 28 77.57 25.39c6.77-2.26 11-5 11-7.68s-4.19-5.41-11-7.67C69.86 7.47 59.13 5.88 47.2 5.88S24.55 7.47 16.83 10c-14.36 4.8-14.75 10.42 0 15.35zm70.1 31.17a33.09 33.09 0 0 1 23.44 9.71 33.12 33.12 0 0 1 0 46.86 33.12 33.12 0 0 1-46.86 0 33.12 33.12 0 0 1 0-46.86 33.06 33.06 0 0 1 23.43-9.71zm1.88 17.52L86 88.12l-2.8-4.22c-6 2.42-9.42 6.42-9.92 12.56-5-8.66-1.95-16.43 4.33-21l-2.86-4.3 14 2.9zm-4.49 32.13l2.76-14 2.81 4.22c6-2.42 9.42-6.42 9.92-12.56 5 8.66 2 16.43-4.33 21l2.86 4.3-14-2.9zM106.7 70a28 28 0 1 0 8.19 19.77A27.84 27.84 0 0 0 106.7 70zM43.92 91c-11.23-.23-21.37-1.88-28.92-4.4a37.06 37.06 0 0 1-9-4.26v19.18c.53 2.49 4.59 5 10.89 7.11 7.72 2.58 18.45 4.17 30.37 4.17h3.42a43.68 43.68 0 0 0 4.32 5.69q-3.78.22-7.74.22c-12.52 0-23.92-1.71-32.23-4.48-4.38-1.47-14.91-6.27-14.91-12v-1.93C.06 74.09 0 43.92 0 17.71 0 12.23 5.72 7.58 15 4.49 23.28 1.71 34.68 0 47.2 0s23.92 1.71 32.23 4.49 13.92 6.92 14.84 11.77a2.93 2.93 0 0 1 .17 1v30.09a42.18 42.18 0 0 0-6.08-.64 2.77 2.77 0 0 0 .17-.93V26.62a37 37 0 0 1-9.13 4.32c-8.31 2.77-19.71 4.49-32.23 4.49S23.28 33.71 15 30.94a37.44 37.44 0 0 1-9-4.25v19.65c.53 2.49 4.59 5 10.89 7.11 7.66 2.55 18.39 4.17 30.31 4.17 4.08 0 8-.19 11.74-.54-.62.53-1.22 1.08-1.8 1.64-.22.18-.42.37-.62.56a43.9 43.9 0 0 0-3.55 4c-1.89.08-3.8.12-5.75.12-12.54.09-23.94-1.62-32.22-4.4a37.06 37.06 0 0 1-9-4.25v19.18c.53 2.49 4.59 5 10.89 7.11 7.05 2.35 16.61 3.88 27.31 4.13a42.92 42.92 0 0 0-.24 4.55v1.32z"/></svg>