<svg width="256" height="256" xmlns="http://www.w3.org/2000/svg" xmlns:xlink="http://www.w3.org/1999/xlink" xmlns:svgjs="http://svgjs.com/svgjs"><svg xmlns="http://www.w3.org/2000/svg" viewBox="0 0 32 32" width="256" height="256"><path d="M20 11a1 1 0 0 0 1-1V8a1 1 0 1 0-2 0v2a1 1 0 0 0 1 1zm4-1V8a1 1 0 1 0-2 0v2a1 1 0 1 0 2 0zm3 0V8a1 1 0 1 0-2 0v2a1 1 0 1 0 2 0zm-3 8v-2a1 1 0 1 0-2 0v2a1 1 0 1 0 2 0zm-3 0v-2a1 1 0 1 0-2 0v2a1 1 0 1 0 2 0zm6 0v-2a1 1 0 1 0-2 0v2a1 1 0 1 0 2 0zm-7 9a1 1 0 0 0 1-1v-2a1 1 0 1 0-2 0v2a1 1 0 0 0 1 1zm3 0a1 1 0 0 0 1-1v-2a1 1 0 1 0-2 0v2a1 1 0 0 0 1 1zm3 0a1 1 0 0 0 1-1v-2a1 1 0 1 0-2 0v2a1 1 0 0 0 1 1z" class="color000 svgShape"/><path d="M27.04 4H20a1 1 0 1 0 0 2h7.04c.529 0 .96.431.96.96V12H17a1 1 0 1 0 0 2h11v6H12v-6a1 1 0 1 0-2 0v13.04A2.964 2.964 0 0 0 12.96 30h14.08A2.964 2.964 0 0 0 30 27.04V6.96A2.964 2.964 0 0 0 27.04 4zM28 27.04c0 .529-.431.96-.96.96H12.96a.962.962 0 0 1-.96-.96V22h16v5.04z" class="color000 svgShape"/><path d="M13 13c.153 0 .307-.035.447-.105l4-2c.339-.17.553-.516.553-.895V5c0-.013-.005-.024-.005-.037-.001-.028-.008-.055-.012-.083a.983.983 0 0 0-.074-.274c-.008-.017-.006-.036-.014-.053-.005-.011-.015-.017-.021-.027a.985.985 0 0 0-.215-.274c-.016-.014-.035-.023-.052-.036-.051-.04-.101-.081-.16-.11l-4-2a1 1 0 0 0-.895 0l-4 2c-.059.029-.108.07-.159.11-.017.013-.036.021-.052.036a.963.963 0 0 0-.214.274c-.006.01-.016.016-.021.027-.009.017-.007.036-.015.053a.983.983 0 0 0-.074.274c-.004.028-.011.055-.012.083C8.005 4.976 8 4.987 8 5v5c0 .379.214.725.553.895l4 2c.14.07.294.105.447.105zm1-2.618V7.618l2-1v2.764l-2 1zm-1-6.264L14.764 5 13 5.882 11.236 5 13 4.118zm-3 2.5l2 1v2.764l-2-1V6.618zM6 3H3a1 1 0 1 0 0 2h3a1 1 0 1 0 0-2zm0 3H3a1 1 0 1 0 0 2h3a1 1 0 1 0 0-2zm0 3H3a1 1 0 1 0 0 2h3a1 1 0 1 0 0-2z" class="color000 svgShape"/></svg></svg>