<?xml version="1.0" encoding="UTF-8" standalone="no"?>
<svg
   id="Layer_1"
   viewBox="0 0 800.00001 800.00002"
   version="1.1"
   sodipodi:docname="atec_wppp_icon.svg"
   width="800"
   height="800"
   inkscape:version="1.3 (0e150ed, 2023-07-21)"
   xmlns:inkscape="http://www.inkscape.org/namespaces/inkscape"
   xmlns:sodipodi="http://sodipodi.sourceforge.net/DTD/sodipodi-0.dtd"
   xmlns="http://www.w3.org/2000/svg"
   xmlns:svg="http://www.w3.org/2000/svg">
  <defs
     id="defs1" />
  <sodipodi:namedview
     id="namedview1"
     pagecolor="#ffffff"
     bordercolor="#000000"
     borderopacity="0.25"
     inkscape:showpageshadow="2"
     inkscape:pageopacity="0.0"
     inkscape:pagecheckerboard="0"
     inkscape:deskcolor="#d1d1d1"
     inkscape:zoom="1"
     inkscape:cx="320.5"
     inkscape:cy="454"
     inkscape:window-width="1392"
     inkscape:window-height="1099"
     inkscape:window-x="0"
     inkscape:window-y="25"
     inkscape:window-maximized="0"
     inkscape:current-layer="Layer_1" />
  <style
     id="style1">.st0{fill-rule:evenodd;clip-rule:evenodd}</style>
  <path
     class="st0"
     d="m 436.03796,132.30243 c 66.67209,7.03182 127.54944,33.7267 176.70708,74.09457 l 33.92203,-35.41955 c 6.9016,-7.22715 18.49109,-7.35737 25.71824,-0.39066 l 22.78831,22.13722 c 7.16204,6.96671 7.29226,18.49109 0.39066,25.65313 l -34.83356,36.33108 c 46.55326,57.49166 74.48522,130.7398 74.48522,210.43379 0,184.91087 -149.94709,334.85797 -334.85797,334.85797 C 215.44709,800.06509 65.5,650.11799 65.5,465.20712 65.5,381.73678 96.101448,305.36338 146.62639,246.69976 L 107.4305,209.8478 c -7.29226,-6.83649 -7.487594,-18.42598 -0.58599,-25.65313 l 21.94189,-22.98364 c 6.9016,-7.22715 18.42598,-7.42248 25.65313,-0.58598 l 41.73516,39.261 A 332.54659,332.54659 0 0 1 377.37433,131.26068 V 58.598517 h -64.45837 c -8.59445,0 -15.62627,-7.031822 -15.62627,-15.626271 V 15.626271 C 297.28969,7.0318221 304.32151,0 312.91596,0 h 187.51526 c 8.59445,0 15.62627,7.0318221 15.62627,15.626271 v 27.345975 c 0,8.594449 -7.03182,15.626271 -15.62627,15.626271 h -64.45837 v 73.703913 z m -62.96085,210.36868 h 28.58305 c 5.20876,0 9.50598,4.29722 9.50598,9.50598 v 119.47586 h 87.96289 c 5.20875,0 9.50598,4.29723 9.50598,9.50599 v 28.58305 c 0,5.20876 -4.29723,9.50598 -9.50598,9.50598 H 363.57112 V 352.17709 c 0,-5.27387 4.29723,-9.50598 9.50599,-9.50598 z M 400.35797,193.31 c 150.14242,0 271.89712,121.75469 271.89712,271.89712 0,150.14242 -121.7547,271.89712 -271.89712,271.89712 -150.14242,0 -271.89712,-121.7547 -271.89712,-271.89712 0,-150.14243 121.7547,-271.89712 271.89712,-271.89712 z"
     id="path1"
     style="stroke-width:6.51095" />
</svg>
