<?xml version="1.0" encoding="UTF-8" standalone="no"?>
<svg
   version="1.1"
   width="128"
   height="128"
   viewBox="0 0 128 128"
   id="svg9"
   sodipodi:docname="wp-mega-cache-favicon-color.svg"
   xmlns:inkscape="http://www.inkscape.org/namespaces/inkscape"
   xmlns:sodipodi="http://sodipodi.sourceforge.net/DTD/sodipodi-0.dtd"
   xmlns="http://www.w3.org/2000/svg"
   xmlns:svg="http://www.w3.org/2000/svg">
  <defs
     id="defs9" />
  <sodipodi:namedview
     id="namedview9"
     pagecolor="#ffffff"
     bordercolor="#000000"
     borderopacity="0.25"
     inkscape:showpageshadow="2"
     inkscape:pageopacity="0.0"
     inkscape:pagecheckerboard="0"
     inkscape:deskcolor="#d1d1d1" />
  <g
     transform="matrix(0.8046875,0,0,0.8046875,12.221578,27.95981)"
     id="g8">
    <svg
       viewBox="0 0 96 67"
       data-background-color="#ffffff"
       preserveAspectRatio="xMidYMid"
       height="89"
       width="128"
       version="1.1"
       id="svg8">
      <g
         id="tight-bounds"
         transform="translate(0.2595,0.21666497)">
        <svg
           viewBox="0 0 95.481 66.56667"
           height="66.566673"
           width="95.481003"
           version="1.1"
           id="svg7">
          <g
             id="g7">
            <svg
               viewBox="0 0 95.481 66.56667"
               height="66.566673"
               width="95.481003"
               version="1.1"
               id="svg6">
              <g
                 id="g6">
                <svg
                   viewBox="0 0 95.481 66.56667"
                   height="66.566673"
                   width="95.481003"
                   version="1.1"
                   id="svg5">
                  <g
                     id="textblocktransform">
                    <svg
                       viewBox="0 0 95.481 66.56667"
                       height="66.566673"
                       width="95.481003"
                       id="textblock"
                       version="1.1">
                      <g
                         id="g5">
                        <svg
                           viewBox="0 0 95.481 66.56667"
                           height="66.566673"
                           width="95.481003"
                           version="1.1"
                           id="svg4">
                          <g
                             id="g4">
                            <svg
                               viewBox="0 0 95.481 66.56667"
                               height="66.566673"
                               width="95.481003"
                               version="1.1"
                               id="svg3">
                              <g
                                 id="g3">
                                <svg
                                   version="1.1"
                                   x="0"
                                   y="0"
                                   viewBox="6.728 25.8 86.772 60.495"
                                   enable-background="new 0 0 100 100"
                                   xml:space="preserve"
                                   height="66.566673"
                                   width="95.481003"
                                   class="icon-icon-0"
                                   data-fill-palette-color="accent"
                                   id="icon-0"><polygon
                                   points="74.829,55.229 84.164,70.762 74.829,86.295 84.164,86.295 93.5,70.762 84.164,55.229 "
                                   fill="#fe5200"
                                   data-fill-palette-color="accent"
                                   id="polygon1" /><polygon
                                   points="70.515,86.295 79.851,70.762 70.515,55.229 61.179,55.229 70.515,70.762 61.179,86.295 "
                                   fill="#fe5200"
                                   data-fill-palette-color="accent"
                                   id="polygon2" /><polygon
                                   points="47.53,86.295 56.866,86.295 66.201,70.762 56.866,55.229 47.53,55.229 56.866,70.762 "
                                   fill="#fe5200"
                                   data-fill-palette-color="accent"
                                   id="polygon3" /><path
                                   d="M 44.53,84.492 52.782,70.762 44.53,57.032 41.343,51.729 H 66.901 C 64.805,37.072 52.212,25.8 36.975,25.8 20.27,25.8 6.728,39.343 6.728,56.048 c 0,16.705 13.542,30.247 30.247,30.247 2.398,0 4.727,-0.29 6.964,-0.819 z M 41.457,34.5 41.308,45.709 c -4.24,-0.419 -8.45,0.889 -11.543,3.489 L 21.74,41.18 C 26.79,36.139 34.177,33.52 41.457,34.5 M 15.821,52.02 a 21.2,21.2 0 0 1 2.165,-5.849 l 9.044,6.146 a 13.2,13.2 0 0 0 -1.802,4.403 15.2,15.2 0 0 0 -0.275,4.107 l -8.734,1.634 A 21.6,21.6 0 0 1 15.821,52.02 m 11.393,23.736 a 21.67,21.67 0 0 1 -8.92,-8.445 l 7.305,-2.959 a 15.3,15.3 0 0 0 4.457,6.884 z m 5.408,1.9 a 22,22 0 0 1 -1.296,-0.315 l 1.64,-4.074 a 15.2,15.2 0 0 0 4.082,1.489 c 2.55,0.531 5.081,0.478 7.471,-0.044 l 0.385,1.919 a 21.57,21.57 0 0 1 -12.282,1.025"
                                   fill="#fe5200"
                                   data-fill-palette-color="accent"
                                   id="path3" /></svg>
                              </g>
                            </svg>
                          </g>
                        </svg>
                      </g>
                    </svg>
                  </g>
                </svg>
              </g>
            </svg>
          </g>
          <defs
             id="defs7" />
        </svg>
        <rect
           width="95.481003"
           height="66.566673"
           fill="none"
           stroke="none"
           visibility="hidden"
           id="rect7"
           x="0"
           y="0" />
      </g>
    </svg>
  </g>
</svg>
