<svg width="800" height="800" viewBox="0 0 512 512" xmlns="http://www.w3.org/2000/svg"><path d="M243.86.013c-2.336.021-4.648.073-6.937.168-79.356 3.304-130.367 49.913-150.965 101.468-12.677 31.725-13.35 65.201-1.964 91.424 11.387 26.226 34.136 45.887 72.454 51.594 20.413 3.04 40.503 6.352 59.9 10.245 64.846-27.121 77.123-77.815 93.809-124.217 8.376-23.295 17.626-45.763 36.682-61.095 13.816-11.118 32.263-17.483 56.821-17.861-30.874-22.08-67.165-38.33-107.312-46.47C277.7 1.487 260.21-.15 243.86.01zm159.698 71.744c-20.619.262-34.017 5.52-43.994 13.548-13.881 11.168-22.23 29.569-30.355 52.165-14.311 39.796-28.77 91.827-82.033 124.316 45.52 11.29 85.47 26.956 113.91 51.223 23.136 19.74 38.273 45.923 40.508 78.451 1.668 24.255-3.574 51.733-16.515 83.236C494.515 395.111 525.711 294.41 506.841 205.88c-10.649-49.953-37.52-96.142-76.177-132.1-10.23-1.49-19.21-2.123-27.106-2.022zM69.612 88.407c-22.178 6.928-45.485 18.746-69.61 36.292L0 512h250.019c12.092-25.124 21.463-50.406 28.36-75.453-37.41-1.238-72.961-13.577-102.405-33.494-52.967-35.837-87.16-96.802-78.24-160.914-14.557-11.008-25.4-25.148-32.318-41.08-13.959-32.142-12.616-70.88 1.759-106.858a166.466 166.466 0 0 1 2.436-5.796zm156.65 29.25c25.354 0 45.923 20.454 45.923 45.694 0 25.241-20.569 45.696-45.922 45.696-25.353 0-45.889-20.455-45.889-45.696 0-25.24 20.536-45.696 45.889-45.696zM116.922 253.731c-3.79 52.76 25.32 102.158 70.424 132.672 48.399 32.744 114.02 43.07 176.144 10.415-6.56-1.066-12.826-2.476-18.817-4.214-14.31-18.996-21.72-45.901-20.237-68.138a75.49 75.49 0 0 1 1.624-11.359c-5.793-3.351-11.966-6.524-18.511-9.502-1.798 6.222-2.868 12.787-3.316 19.512-1.235 18.513 2.177 38.497 9.95 56.713-38.864-22.047-60.01-59.776-63.048-95.84-29.897-8.05-63.158-14.237-97.665-19.376-13.536-2.017-25.73-5.75-36.548-10.886z"/></svg>