<svg viewBox="0 0 115.28 122.88" xmlns="http://www.w3.org/2000/svg"><path d="m21 57h69.25v-19.66h-20.66a10.85 10.85 0 0 1 -6.59-2.6 9.41 9.41 0 0 1 -2.3-6.17v-20.93h-52.55a.59.59 0 0 0 -.42.18.45.45 0 0 0 -.18.42v106.45a.67.67 0 0 0 .18.41.51.51 0 0 0 .42.19h81.5c.19 0 .18-.1.27-.19s.33-.27.33-.41v-11.16h-69.25a7.58 7.58 0 0 1 -7.53-7.53v-31.45a7.58 7.58 0 0 1 7.53-7.55zm23.63 13.07h6.87l-3.22 20.53h-8.58l-1.51-7.55h-.39l-1.48 7.55h-8.58l-3.22-20.53h6.87l1.54 11.46h.2l2.37-11.46h5l2.34 11.46h.19l1.58-11.46zm21.65 12.78h-6.57v2.5h8.05v5.25h-14.62v-20.53h14.45l-.82 5.26h-7.06v2.76h6.57zm4.27 7.75v-20.53h10.64c2 0 3.38.38 4.23 1.15a4.31 4.31 0 0 1 1.26 3.35 6.13 6.13 0 0 1 -.8 3.4 3.68 3.68 0 0 1 -2.16 1.56v.2c2.65.46 4 2.26 4 5.42a5.82 5.82 0 0 1 -1.31 4 5.14 5.14 0 0 1 -4 1.49zm9.13-8.45h-3.1v3.85h3.07c.92 0 1.38-.83 1.38-1.94s-.45-1.95-1.35-1.95zm-.49-7.85h-2.61v3.6h2.58c.83 0 1.25-.78 1.25-1.8s-.41-1.8-1.22-1.8zm21.65 11.34h-4.27v5h-6.57v-20.57h10.35q7.07 0 7.06 7.59 0 4.17-1.84 6.17a5.38 5.38 0 0 1 -1.9 1.29 7.11 7.11 0 0 1 -2.83.52zm-4.27-10.86v5.88h1.51a4.57 4.57 0 0 0 1.73-.25c.36-.16.54-.54.54-1.13v-3.12c0-.59-.18-1-.54-1.13a4.54 4.54 0 0 0 -1.73-.25zm1.22-17.78h9.93a7.58 7.58 0 0 1 7.56 7.55v31.45a7.59 7.59 0 0 1 -7.56 7.56h-9.93v13.54a5.82 5.82 0 0 1 -5.79 5.78h-86.19a5.8 5.8 0 0 1 -5.81-5.81v-111.22a5.74 5.74 0 0 1 1.7-4.1 5.83 5.83 0 0 1 4.11-1.7h58.71a1.21 1.21 0 0 1 .42 0 2.72 2.72 0 0 1 1.75.69h.09a.77.77 0 0 1 .22.14l30 30.36a2.86 2.86 0 0 1 .87 2 2.91 2.91 0 0 1 -.09.65v23.11zm-30.27-29v-19l21.42 21.7h-18.75a2.81 2.81 0 0 1 -1.89-.78 2.72 2.72 0 0 1 -.78-1.92z" fill-rule="evenodd"/></svg>