<svg id="Layer_1" xmlns="http://www.w3.org/2000/svg" viewBox="0 0 122.88 82.18"><style>.st0{fill-rule:evenodd;clip-rule:evenodd}</style><path class="st0" d="M2.3 12.86h30.8v-1.5C33.1 5.11 38.21 0 44.46 0h11.37c6.25 0 11.36 5.11 11.36 11.36v1.5h28.85c1.26 0 2.3 1.03 2.3 2.3v7.51H28.06c-1.29 0-2.84 1.05-3.46 2.34L1.88 72.06A2.295 2.295 0 0 1 0 69.81V15.16a2.3 2.3 0 0 1 2.3-2.3zm36.45 0h22.79v-1.29c0-3.21-2.62-5.84-5.84-5.84H44.59c-3.21 0-5.84 2.63-5.84 5.84v1.29zm-8.34 14.15h90.91c1.28 0 1.93 1.07 1.34 2.33L98.91 79.85c-.59 1.26-2.05 2.33-3.33 2.33H4.67c-1.29 0-1.93-1.07-1.34-2.33l23.75-50.51c.59-1.26 2.04-2.33 3.33-2.33z"/></svg>