<svg width="800" height="800" viewBox="0 0 24 24" fill="none" xmlns="http://www.w3.org/2000/svg"><path d="M22 19h-8M2 19h8m2-2v-3" stroke="#000000" stroke-width="1.5" stroke-linecap="round"/><circle cx="12" cy="19" r="2" stroke="#000000" stroke-width="1.5"/><path d="M14 14H5a3 3 0 1 1 0-6h14a3 3 0 1 1 0 6h-1M12 2h7a3 3 0 1 1 0 6H5a3 3 0 0 1 0-6h3m5 3h6m-6 6h6" stroke="#000000" stroke-width="1.5" stroke-linecap="round"/><circle cx="6" cy="5" r="1" fill="#000000"/><circle cx="6" cy="11" r="1" fill="#000000"/></svg>