<svg enable-background="new 0 0 92.35 122.88" viewBox="0 0 92.35 122.88" xmlns="http://www.w3.org/2000/svg"><path clip-rule="evenodd" d="m46.18.01c2.17-.09 3.88.66 5.61 1.76 2.19 1.39 4.66 4.14 7.71 5.88 4.29 2.45 12.23-.93 16.29 5.11 2.37 3.52 2.48 6.28 2.66 9.01.19 2.94.71 5.65 3.72 9.63 4.99 6.6 6.03 10.99 3.46 15.56-1.75 3.12-5.44 4.85-6.29 6.83-1.82 4.2.19 7.37-2.29 12.27-1.73 3.4-4.39 5.64-7.94 6.78-2.99.96-5.99-.43-8.39.58-4.21 1.77-7.31 5.88-10.66 6.92-1.29.4-2.58.6-3.87.59-1.29.01-2.58-.19-3.87-.59-3.35-1.04-6.45-5.15-10.66-6.92-2.4-1.01-5.4.39-8.39-.58-3.55-1.14-6.21-3.38-7.94-6.78-2.49-4.9-.48-8.07-2.29-12.27-.85-1.98-4.54-3.71-6.29-6.83-2.59-4.57-1.55-8.96 3.44-15.55 3.01-3.98 3.53-6.69 3.72-9.63.18-2.73.29-5.49 2.66-9.01 4.07-6.04 12.01-2.66 16.29-5.11 3.05-1.74 5.52-4.49 7.71-5.88 1.72-1.11 3.44-1.87 5.61-1.77zm0 25.96 4.46 10.9 11.75.87-8.99 7.61 2.8 11.44-10.02-6.2-10.02 6.2 2.8-11.44-8.99-7.61 11.75-.87zm42.78 87.1-11.55-2.07-5.73 10.26c-4.16 5.15-6.8-3.32-7.96-6.27l-11.15-21.03c2.57-.89 5.67-3.46 8.85-6.35 6.35.13 12.27-.97 16.62-6.51l12.81 24.75 1.11 2.38c.88 3.09.42 5.13-3 4.84zm-85.57 0 11.56-2.07 5.73 10.26c4.16 5.15 6.8-3.32 7.96-6.27l11.15-21.03c-2.57-.89-5.67-3.46-8.85-6.35-6.35.13-12.27-.97-16.62-6.51l-12.82 24.75-1.11 2.38c-.88 3.09-.42 5.13 3 4.84zm42.67-96.97c13.8 0 24.99 11.19 24.99 24.99s-11.19 24.99-24.99 24.99-24.99-11.19-24.99-24.99c.01-13.8 11.19-24.99 24.99-24.99z" fill-rule="evenodd"/></svg>