<svg enable-background="new 0 0 122.88 99.47" viewBox="0 0 122.88 99.47" xmlns="http://www.w3.org/2000/svg"><path clip-rule="evenodd" d="m83.16 19.21-.02.07c-5.21-.97-12.73-1.48-20.66-1.39-8.02.09-16.5.79-23.48 2.22l-.01-.03c-6.09-28.65 52.22-24.56 44.17-.87zm-54.89 75.72c-4.56 3.46-9.67 6.2-17.18 3.35-4.87-1.85-8.86-6.12-11.09-11.5 19.4 8.79 26.34-16.44 3.37-17.2 7.01-8.44 17.35-8.37 25.71-2.18 3.95 2.92 6.17 4.39 8.45 5.03 1.24.37 2.49.44 4.07.44 5.34.02 33.31-.59 38.97-.71 10.66-.21 16.05-16.6 31.22-10.82 4.87 1.85 8.86 6.12 11.09 11.5-19.4-8.79-26.34 16.44-3.37 17.2-7.01 8.44-17.35 8.37-25.71 2.18-3.66-2.72-5.97-5.92-13.2-5.72-5.01.21-32.93.54-37.95.88-2 .12-3.32.32-4.58.81-2.28.87-4.34 2.64-9.73 6.75zm21.02-44.69c-3.54 2.49-7.25 3.41-10.86 4.08l4.27 12.12c8.71-.1 28.95-.53 37.24-.71l2.04-.04 3.15-11.27c-3.22-.33-6.23-.58-8.58-1.82-1.06-.67-2-1.59-2.86-2.76l-.15-2.42c.84-.69 1.64-1.49 2.33-2.39 1.55-1.94 2.15-3.94 2.89-6.47.15-.54.3-1.07.48-1.61 1.46-.15 2.74-1.79 3.52-3.82.42-1.13.75-2.42.83-3.55.12-1.19 0-2.3-.42-3.04-.33-.6-.84-.98-1.52-1.04-.05-.59.22-1.86.58-3.2-4.93-.89-12.1-1.35-19.72-1.26-7.83.09-16.09.77-22.87 2.16l.66 3.16c-.51.84-.63 2.15-.48 3.55.15 1.37.57 2.8 1.16 4 .78 1.52 1.88 2.6 3.16 2.6.12.36.27.75.39 1.13 1.04 3.07 1.82 5.4 3.7 7.61.54.66 1.13 1.25 1.76 1.79l-.15 2.71c-.18.16-.36.33-.55.49zm-16.85 5.19c-2.76.63-5.38 1.56-7.74 3.47 1.31.71 2.59 1.53 3.83 2.45 2.05 1.52 3.65 2.65 5 3.48.79.48 1.46.83 2.08 1.08-.75-4.34-2.62-8.43-3.17-10.48zm63.76 1.9c-1.57-.92-3.21-1.53-4.87-1.95-.36 1.47-1.14 4.11-1.76 7.05.85-.63 1.71-1.31 2.58-2 1.33-1.05 2.66-2.11 4.05-3.1zm-41.06-46.97h12.6c.3 0 .54.24.54.54v2.91c0 .3-.24.54-.54.54h-12.6c-.3 0-.54-.24-.54-.54v-2.91c0-.3.24-.54.54-.54zm16.5 38.01c-3.37 2.24-5.42 3.48-9.78 3.37-4.24-.06-6.45-1.5-9.84-3.64-.24 14.15 19.97 14.99 19.62.27zm5.05-10.27c.18-.63.39-1.28.63-2.06.09-.33.42-.57.75-.51.98.18 1.97-1.25 2.65-2.98.39-1.04.69-2.18.78-3.19.09-.95 0-1.79-.27-2.3-.27-.49-1-.21-1.55-.69-2.82 7.49-27.46 10.88-37.54.57-.36.57-.42 1.58-.3 2.71.15 1.19.51 2.51 1.04 3.55.63 1.22 1.43 2.06 2.24 1.85.33-.09.69.09.81.42.24.66.39 1.16.57 1.67 5.21 15.35 25.07 16.55 30.19.96z" fill="#050505" fill-rule="evenodd"/></svg>